<svg width="24" height="24" viewBox="0 0 24 24" fill="none" xmlns="http://www.w3.org/2000/svg">
<path d="M12.1269 7.74663C11.337 7.74663 10.1145 6.8483 8.82697 6.87997C7.12698 6.90247 5.56866 7.86579 4.69283 9.39162C2.92868 12.4541 4.23783 16.9774 5.95866 19.4665C6.80282 20.6782 7.79864 22.0415 9.11863 21.999C10.3853 21.9449 10.8603 21.1765 12.3978 21.1765C13.9236 21.1765 14.3561 21.999 15.6978 21.9665C17.0619 21.9449 17.9277 20.7332 18.7611 19.5099C19.7244 18.1032 20.1244 16.7391 20.1461 16.6641C20.1136 16.6532 17.4944 15.6466 17.4627 12.6166C17.4411 10.0833 19.5294 8.87162 19.6269 8.81745C18.4361 7.0758 16.6077 6.8808 15.9686 6.83747C14.3019 6.70747 12.9061 7.74579 12.1269 7.74579V7.74663ZM14.9419 5.19164C15.6444 4.34832 16.1086 3.16916 15.9794 2C14.9736 2.04333 13.7611 2.67083 13.0361 3.51499C12.3861 4.26165 11.8244 5.46331 11.9753 6.60997C13.0903 6.69663 14.2378 6.03664 14.9411 5.19248" fill="black"/>
</svg>
