<svg width="24" height="24" viewBox="0 0 24 24" fill="none" xmlns="http://www.w3.org/2000/svg">
<path d="M21.6 12.2273C21.6 11.5182 21.5364 10.8364 21.4182 10.1818H12V14.0545H17.3818C17.1455 15.3 16.4364 16.3545 15.3727 17.0636V19.5818H18.6182C20.5091 17.8364 21.6 15.2727 21.6 12.2273Z" fill="#4285F4"/>
<path d="M12 22C14.7 22 16.9636 21.1091 18.6182 19.5818L15.3727 17.0636C14.4818 17.6636 13.3455 18.0273 12 18.0273C9.4 18.0273 7.19091 16.2727 6.4 13.9091H3.07273V16.4909C4.71818 19.7545 8.09091 22 12 22Z" fill="#34A853"/>
<path d="M6.4 13.9C6.2 13.3 6.08182 12.6636 6.08182 12C6.08182 11.3364 6.2 10.7 6.4 10.1V7.51818H3.07273C2.39091 8.86364 2 10.3818 2 12C2 13.6182 2.39091 15.1364 3.07273 16.4818L5.66364 14.4636L6.4 13.9Z" fill="#FBBC05"/>
<path d="M12 5.98182C13.4727 5.98182 14.7818 6.49091 15.8273 7.47273L18.6909 4.60909C16.9545 2.99091 14.7 2 12 2C8.09091 2 4.71818 4.24546 3.07273 7.51818L6.4 10.1C7.19091 7.73636 9.4 5.98182 12 5.98182Z" fill="#EA4335"/>
</svg>
